# xmcd CD database file
#
# Track frame offsets:
#	187
#	15362
#	32002
#	44590
#	57310
#	71250
#	86442
#	99572
#	112372
#	127227
#	144725
#	158927
#	172870
#	187255
#	200792
#	216842
#
# Disc length: 3078 seconds
#
# Revision: 2
# Processed by: cddbd v1.5.1PL2 Copyright (c) Steve Scherf et al.
# Submitted via: CDex 1.51
#
DISCID=f10c0410
DTITLE=麻丘めぐみ - BEST SELECTION(1972/77)
DYEAR=1990
DGENRE=Pop
TTITLE0=芽ばえ
TTITLE1=悲しみよこんにちは
TTITLE2=女の子なんだもん
TTITLE3=森を駈ける恋人たち
TTITLE4=わたしの彼は左きき
TTITLE5=アルプスの少女
TTITLE6=ときめき
TTITLE7=白い部屋
TTITLE8=悲しみのシーズン
TTITLE9=雪の中の二人
TTITLE10=水色のページ
TTITLE11=恋のあやとり
TTITLE12=美しく燃えながら
TTITLE13=白い微笑
TTITLE14=夏八景
TTITLE15=ねえ
EXTD=YEAR: 1990
EXTT0=
EXTT1=
EXTT2=
EXTT3=
EXTT4=
EXTT5=
EXTT6=
EXTT7=
EXTT8=
EXTT9=
EXTT10=
EXTT11=
EXTT12=
EXTT13=
EXTT14=
EXTT15=
PLAYORDER=
